<svg width="16" height="16" viewBox="0 0 16 16" xmlns="http://www.w3.org/2000/svg">
<mask id="mask0_6_12540" style="mask-type:alpha" maskUnits="userSpaceOnUse" x="0" y="0" width="16" height="16">
<path d="M6.57031 1L6.32812 2.28906C5.39844 2.5625 4.57031 3.04688 3.89063 3.69531L2.65234 3.26172L1.22266 5.73828L2.21094 6.58594C2.09766 7.04297 2 7.50781 2 8C2 8.49219 2.09766 8.95703 2.21094 9.41406L1.22266 10.2617L2.65234 12.7383L3.88672 12.3008C4.57031 12.957 5.39844 13.4375 6.32812 13.7148L6.57031 15H9.42969L9.67188 13.7148C10.6016 13.4375 11.4297 12.9531 12.1094 12.3008L13.3438 12.7383L14.7773 10.2617L13.7852 9.41406C13.8984 8.95703 14 8.49219 14 8C14 7.50781 13.9023 7.04297 13.7891 6.58594L14.7773 5.73828L13.3477 3.26172L12.1133 3.69531C11.4297 3.04297 10.6016 2.5625 9.67188 2.28906L9.42969 1H6.57031ZM7.39844 2H8.60156L8.79688 3.05469L9.11719 3.13281C10.1094 3.35938 10.9844 3.87891 11.6562 4.59766L11.8789 4.83594L12.8945 4.48047L13.4961 5.51953L12.6836 6.21875L12.7812 6.53125C12.9219 6.99219 13 7.48828 13 8C13 8.51172 12.9219 9.00391 12.7812 9.46875L12.6836 9.78125L13.4961 10.4805L12.8945 11.5195L11.8789 11.1602L11.6562 11.4023C10.9844 12.1211 10.1094 12.6406 9.11719 12.8711L8.79688 12.9414L8.60156 14H7.39844L7.20312 12.9414L6.88281 12.8711C5.89063 12.6406 5.01563 12.1211 4.34375 11.4023L4.11719 11.1602L3.10156 11.5195L2.50391 10.4805L3.31641 9.78125L3.21875 9.46875C3.07813 9.00781 3 8.51172 3 8C3 7.48828 3.07813 6.99219 3.21875 6.53125L3.31641 6.21875L2.50391 5.51953L3.10156 4.48047L4.12109 4.83594L4.34375 4.59766C5.01563 3.87891 5.89063 3.35938 6.88281 3.13281L7.20312 3.05469L7.39844 2ZM8 5C6.34766 5 5 6.34766 5 8C5 9.65234 6.34766 11 8 11C9.65234 11 11 9.65234 11 8C11 6.34766 9.65234 5 8 5ZM8 6C9.10938 6 10 6.89062 10 8C10 9.10938 9.10938 10 8 10C6.89062 10 6 9.10938 6 8C6 6.89062 6.89062 6 8 6Z"/>
</mask>
<g mask="url(#mask0_6_12540)">
<rect width="16" height="16"/>
</g>
</svg>
