<svg width="16" height="16" viewBox="0 0 16 16" xmlns="http://www.w3.org/2000/svg">
<mask id="mask0_6_12555" style="mask-type:alpha" maskUnits="userSpaceOnUse" x="0" y="0" width="16" height="16">
<path d="M7.50001 1.00781C6.95704 1.00781 6.41407 1.26562 6.10548 1.78125L0.226569 11.6055C-0.398432 12.6445 0.40235 14 1.61719 14H13.3789C14.5977 14 15.3984 12.6445 14.7773 11.6055L8.89454 1.78125C8.58594 1.26562 8.04298 1.00781 7.50001 1.00781ZM7.50001 1.99219C7.70704 1.99219 7.91407 2.09375 8.03907 2.29687L13.918 12.1172C14.1641 12.5273 13.8906 13 13.3789 13H1.61719C1.10938 13 0.835944 12.5273 1.08204 12.1172L6.96094 2.29687C7.08594 2.09375 7.29298 1.99219 7.50001 1.99219ZM6.99219 5V10H7.99219V5H6.99219ZM6.99219 11V12H7.99219V11H6.99219Z"/>
</mask>
<g mask="url(#mask0_6_12555)">
<rect width="16" height="16" />
</g>
</svg>
