<svg width="16" height="16" viewBox="0 0 16 16" fill="none" xmlns="http://www.w3.org/2000/svg">
<path d="M2.5 1C1.67578 1 1 1.67578 1 2.5V10.5C1 11.3242 1.67578 12 2.5 12H4V12.5C4 13.3242 4.67578 14 5.5 14H13.5C14.3242 14 15 13.3242 15 12.5V4.5C15 3.67578 14.3242 3 13.5 3H12V2.5C12 1.67578 11.3242 1 10.5 1H2.5ZM2.5 2H10.5C10.7812 2 11 2.21875 11 2.5V10.5C11 10.7812 10.7812 11 10.5 11H2.5C2.21875 11 2 10.7812 2 10.5V2.5C2 2.21875 2.21875 2 2.5 2ZM12 4H13.5C13.7812 4 14 4.21875 14 4.5V12.5C14 12.7812 13.7812 13 13.5 13H5.5C5.21875 13 5 12.7812 5 12.5V12H10.5C11.3242 12 12 11.3242 12 10.5V4Z" fill="#887DFF"/>
</svg>
