<svg width="16" height="16" viewBox="0 0 16 16" fill="none" xmlns="http://www.w3.org/2000/svg">
<path d="M3.44444 2.00022C2.65501 2.00022 2 2.65523 2 3.44467V5.00727L3 5.00022V2.99317L5 2.99316V1.99316L3.44444 2.00022Z" fill="#A3A3B1"/>
<path d="M8 2.00022V3.00022L10.0071 2.99317V5.00022L11 5.00727V6.00022H10.0071V7.00022L11 7.00163V6.00726L13.0071 6.00021V8.00727L14 8.01432V6.45171C14 5.66228 13.345 5.00727 12.5556 5.00727L11 5.00727V3.44467C11 2.65523 10.345 2.00022 9.55556 2.00022L8 2.00022Z" fill="#A3A3B1"/>
<path d="M2 8.00727V9.55578C2 10.3452 2.65501 11.0002 3.44444 11.0002H5V10.0073L3 10.0002V8.00022L2 8.00727Z" fill="#A3A3B1"/>
<path d="M10.0071 8.00022V10.0002L8 10.0073V11.0002H9.55556C10.345 11.0002 11 10.3452 11 9.55578V8.00727L10.0071 8.00022Z" fill="#A3A3B1"/>
<path d="M6 2.99317V1.99317H7V2.99317H6Z" fill="#A3A3B1"/>
<path d="M6 10.0002V10.9932H7V10.0002H6Z" fill="#A3A3B1"/>
<path d="M2 6.00727V7.00727L3 7.00022V6.00022L2 6.00727Z" fill="#A3A3B1"/>
<path d="M5 11.0143V12.5628C5 13.3523 5.65501 14.0073 6.44444 14.0073H8V13.0143L6 13.0073V11.0073L5 11.0143Z" fill="#A3A3B1"/>
<path d="M13.0071 11.0073V13.0073L11 13.0143V14.0073H12.5556C13.345 14.0073 14 13.3523 14 12.5628V11.0143L13.0071 11.0073Z" fill="#A3A3B1"/>
<path d="M9 14.0002V13.0073H10V14.0002H9Z" fill="#A3A3B1"/>
<path d="M14 9.00726H13.0071V10.0073L14 10.0087V9.00726Z" fill="#A3A3B1"/>
</svg>
