<svg width="16" height="16" viewBox="0 0 16 16" fill="none" xmlns="http://www.w3.org/2000/svg">
<path d="M6 1C4.68333 1 3.65243 1.26554 2.95898 1.95898C2.26554 2.65243 2 3.68333 2 5C2 6.24067 1.08294 7 0 7V8C1.08294 8 2 8.75933 2 10C2 11.3167 2.26554 12.3476 2.95898 13.041C3.65243 13.7345 4.68333 14 6 14V13C4.81667 13 4.09757 12.7655 3.66602 12.334C3.23446 11.9024 3 11.1833 3 10C3 8.76422 2.2108 7.97376 1.24609 7.5C2.2108 7.02624 3 6.23578 3 5C3 3.81667 3.23446 3.09757 3.66602 2.66602C4.09757 2.23446 4.81667 2 6 2V1ZM9 1V2C10.1833 2 10.9024 2.23446 11.334 2.66602C11.7655 3.09757 12 3.81667 12 5C12 6.23578 12.7892 7.02624 13.7539 7.5C12.7892 7.97376 12 8.76422 12 10C12 11.1833 11.7655 11.9024 11.334 12.334C10.9024 12.7655 10.1833 13 9 13V14C10.3167 14 11.3476 13.7345 12.041 13.041C12.7345 12.3476 13 11.3167 13 10C13 8.75933 13.9171 8 15 8V7C13.9171 7 13 6.24067 13 5C13 3.68333 12.7345 2.65243 12.041 1.95898C11.3476 1.26554 10.3167 1 9 1Z" fill="#A3A3B1"/>
</svg>
