<svg width="16" height="16" viewBox="0 0 16 16" fill="none" xmlns="http://www.w3.org/2000/svg">
<g clip-path="url(#clip0_6_12397)">
<path d="M7.5 4C2.10547 4 0.046875 8.28906 0.046875 8.28906L-0.0546875 8.5L0.046875 8.71094C0.046875 8.71094 2.10547 13 7.5 13C12.8945 13 14.9531 8.71094 14.9531 8.71094L15.0508 8.5L14.9531 8.28906C14.9531 8.28906 12.8945 4 7.5 4ZM7.5 5C9.4375 5 11 6.5625 11 8.5C11 10.4375 9.4375 12 7.5 12C5.5625 12 4 10.4375 4 8.5C4 6.5625 5.5625 5 7.5 5ZM3.94141 5.77734C3.35938 6.53516 3 7.47266 3 8.5C3 9.52734 3.35938 10.4648 3.94141 11.2227C2.02344 10.2695 1.24219 8.75391 1.11719 8.5C1.24219 8.24609 2.02344 6.73047 3.94141 5.77734ZM11.0586 5.77734C12.9766 6.73047 13.7578 8.24609 13.8828 8.5C13.7578 8.75391 12.9766 10.2695 11.0586 11.2227C11.6406 10.4648 12 9.52734 12 8.5C12 7.47266 11.6406 6.53516 11.0586 5.77734ZM7.5 7C6.67188 7 6 7.67188 6 8.5C6 9.32812 6.67188 10 7.5 10C8.32812 10 9 9.32812 9 8.5C9 7.67188 8.32812 7 7.5 7Z" fill="#A3A3B1"/>
</g>
<defs>
<clipPath id="clip0_6_12397">
<rect width="16" height="16" fill="white"/>
</clipPath>
</defs>
</svg>
