<svg width="16" height="16" viewBox="0 0 16 16" xmlns="http://www.w3.org/2000/svg">
<mask id="mask0_6_14110" style="mask-type:alpha" maskUnits="userSpaceOnUse" x="0" y="0" width="16" height="16">
<path d="M6 11V5L10 8L6 11Z" />
<path d="M5 2C3.90278 2 3.04369 2.24511 2.46582 2.88522C1.88795 3.52532 1.66667 4.47692 1.66667 5.69231C1.66667 6.83754 0.902448 7.53846 0 7.53846V8.46154C0.902448 8.46154 1.66667 9.16246 1.66667 10.3077C1.66667 11.5231 1.88795 12.4747 2.46582 13.1148C3.04369 13.7549 3.90278 14 5 14V13.0769C4.01389 13.0769 3.41464 12.8605 3.05501 12.4621C2.69538 12.0638 2.5 11.4 2.5 10.3077C2.5 9.16698 1.84233 8.43732 1.03841 8C1.84233 7.56268 2.5 6.83302 2.5 5.69231C2.5 4.6 2.69538 3.93622 3.05501 3.53786C3.41464 3.1395 4.01389 2.92308 5 2.92308V2Z" />
<path d="M10 14C11.0972 14 11.9563 13.7549 12.5342 13.1148C13.1121 12.4747 13.3333 11.5231 13.3333 10.3077C13.3333 9.16246 14.0976 8.46154 15 8.46154V7.53846C14.0976 7.53846 13.3333 6.83754 13.3333 5.69231C13.3333 4.47692 13.1121 3.52532 12.5342 2.88522C11.9563 2.24511 11.0972 2 10 2V2.92308C10.9861 2.92308 11.5854 3.1395 11.945 3.53786C12.3046 3.93622 12.5 4.6 12.5 5.69231C12.5 6.83302 13.1577 7.56268 13.9616 8C13.1577 8.43732 12.5 9.16698 12.5 10.3077C12.5 11.4 12.3046 12.0638 11.945 12.4621C11.5854 12.8605 10.9861 13.0769 10 13.0769V14Z" />
</mask>
<g mask="url(#mask0_6_14110)">
<rect width="16" height="16"/>
</g>
</svg>
