<svg width="16" height="16" viewBox="0 0 16 16" xmlns="http://www.w3.org/2000/svg">
<mask id="mask0_6_12639" style="mask-type:alpha" maskUnits="userSpaceOnUse" x="0" y="0" width="16" height="16">
<path d="M2.44444 1.00022C1.65501 1.00022 1 1.65523 1 2.44466V4.00727L2 4.00022V1.99316L4 1.99316V0.99316L2.44444 1.00022ZM5 1.00021V2.00021L6 2.00022V1.00022L5 1.00021ZM9 0.99316V1.99316H10V0.99316H9ZM11 1.00021V2.00021L13.0071 1.99316V4.00022L14 4.00727V2.44466C14 1.65523 13.345 1.00022 12.5556 1.00022L11 1.00021ZM1 5.00727V6.00727L2 6.00022V5.00022L1 5.00727ZM13.0071 4.99316V6.00022L14 6.00727V5.00022L13.0071 4.99316ZM14 9.00022H13.0071V10.0002L14 10.0016V9.00022ZM1 9.00727V10.0073L2 10.0002V9.00022L1 9.00727ZM1 11.0073V12.5558C1 13.3452 1.65501 14.0002 2.44444 14.0002H4V13.0073L2 13.0002V11.0002L1 11.0073ZM13.0071 11.0002V13.0002L11 13.0073V14.0002H12.5556C13.345 14.0002 14 13.3452 14 12.5558V11.0073L13.0071 11.0002ZM5 13.0073V14.0002L6 13.9932V13.0002L5 13.0073ZM9 13.0002V13.9932H10V13.0002H9Z"/>
<path d="M7 1.99316V0.993164H8V1.99316H7Z" />
<path d="M7 13.9932V13.0002H8V13.9932H7Z" />
<path d="M13.0071 7.00021H14V8.00162L13.0071 8.00021V7.00021Z" />
<path d="M1 8.00727V7.00727L2 7.00021V8.00021L1 8.00727Z" />
</mask>
<g mask="url(#mask0_6_12639)">
<rect width="16" height="16"/>
</g>
</svg>
